<?xml version="1.0" standalone="no"?>
<!DOCTYPE svg PUBLIC "-//W3C//DTD SVG 20010904//EN"
 "http://www.w3.org/TR/2001/REC-SVG-20010904/DTD/svg10.dtd">
<svg version="1.0" xmlns="http://www.w3.org/2000/svg"
 width="1459.000000pt" height="1459.000000pt" viewBox="0 0 1459.000000 1459.000000"
 preserveAspectRatio="xMidYMid meet">
<metadata>
Created by potrace 1.14, written by Peter Selinger 2001-2017
</metadata>
<g transform="translate(0.000000,1459.000000) scale(0.100000,-0.100000)"
fill="#000000" stroke="none">
<path d="M7077 14584 c-1 -1 -67 -5 -147 -8 -80 -4 -165 -9 -190 -11 -25 -2
-79 -7 -120 -10 -73 -6 -86 -8 -180 -19 -25 -3 -67 -8 -95 -11 -27 -3 -61 -8
-75 -10 -14 -3 -38 -7 -55 -9 -57 -8 -120 -18 -140 -22 -11 -3 -56 -11 -100
-19 -518 -93 -1045 -252 -1560 -470 -124 -53 -506 -240 -635 -311 -502 -277
-981 -623 -1424 -1027 -134 -123 -400 -395 -516 -527 -36 -41 -69 -80 -75 -86
-13 -14 -78 -92 -142 -169 -132 -161 -415 -557 -510 -715 -43 -72 -124 -206
-133 -220 -103 -165 -356 -685 -445 -915 -15 -38 -33 -83 -40 -100 -7 -16 -32
-84 -55 -150 -23 -66 -46 -129 -50 -140 -30 -73 -166 -543 -184 -635 -2 -14
-7 -32 -10 -40 -3 -8 -7 -28 -10 -45 -3 -16 -17 -83 -30 -148 -22 -99 -48
-250 -71 -402 -2 -16 -6 -43 -9 -60 -5 -36 -14 -102 -21 -170 -3 -27 -8 -66
-10 -85 -9 -74 -24 -268 -31 -400 -6 -121 -6 -591 0 -695 16 -265 18 -287 31
-407 3 -26 7 -72 11 -100 3 -29 7 -65 10 -80 2 -15 6 -47 9 -70 2 -24 6 -57 9
-73 3 -17 12 -73 21 -125 22 -129 53 -292 70 -366 8 -34 16 -73 19 -85 10 -56
71 -286 111 -424 87 -296 197 -596 322 -875 13 -30 36 -82 51 -115 48 -108
208 -418 276 -534 36 -62 66 -115 66 -118 0 -2 8 -16 19 -31 10 -15 51 -81 92
-147 303 -490 737 -1013 1215 -1461 118 -111 301 -267 440 -375 38 -30 71 -56
74 -59 14 -16 312 -227 425 -302 404 -264 757 -452 1230 -653 17 -7 80 -32
140 -55 61 -23 119 -46 130 -51 76 -33 585 -191 685 -212 14 -3 43 -10 65 -16
43 -12 204 -49 245 -57 292 -57 295 -57 380 -69 25 -3 52 -8 60 -10 17 -4 67
-11 150 -20 30 -3 66 -8 80 -10 14 -2 54 -7 90 -10 36 -3 88 -8 115 -11 130
-14 434 -27 630 -27 182 1 471 10 535 18 19 2 71 7 115 10 44 3 94 7 110 9 17
2 57 7 90 10 74 8 145 17 166 21 9 2 40 6 69 10 29 4 62 9 74 11 12 2 62 11
111 19 50 8 101 17 115 20 14 3 50 10 80 16 30 6 93 20 140 31 47 11 96 22
109 24 198 39 678 191 979 310 150 60 193 78 322 136 89 40 426 208 500 249
151 83 517 307 575 351 6 5 60 43 120 85 126 88 307 225 385 289 299 253 301
254 515 464 274 269 499 522 685 769 14 18 34 45 46 59 152 195 341 486 559
862 111 192 338 684 427 923 41 113 167 483 172 510 3 12 12 47 21 77 39 133
112 426 129 516 3 16 8 43 11 59 3 17 8 40 10 53 2 12 9 48 15 80 5 31 12 66
14 77 2 11 6 41 10 66 4 25 9 57 11 70 10 61 17 106 20 134 2 17 6 55 9 85 3
30 8 71 11 90 3 19 7 69 11 110 3 41 7 93 9 115 23 251 23 926 0 1100 -2 17
-7 64 -10 105 -12 147 -22 236 -40 360 -2 14 -9 61 -15 105 -6 44 -13 91 -16
105 -3 14 -9 50 -14 80 -20 117 -85 404 -129 575 -12 44 -23 88 -26 98 -31
128 -175 551 -256 749 -78 192 -135 316 -251 548 -101 202 -153 298 -194 362
-13 21 -24 40 -24 43 0 7 -96 163 -178 290 -160 247 -428 604 -597 795 -377
427 -727 753 -1155 1074 -151 113 -419 297 -530 363 -383 229 -654 370 -950
495 -52 22 -109 46 -126 54 -76 34 -308 119 -464 171 -105 34 -359 111 -393
118 -9 2 -45 11 -80 20 -58 16 -246 60 -292 69 -11 3 -51 11 -90 19 -38 9 -86
18 -105 21 -40 7 -84 14 -120 21 -14 3 -43 7 -65 11 -22 3 -51 7 -65 9 -14 2
-47 7 -75 11 -27 3 -58 8 -67 9 -9 2 -48 7 -85 10 -37 4 -76 9 -85 11 -10 1
-61 6 -115 9 -53 4 -106 9 -117 11 -55 10 -748 27 -759 18z m503 -49 c107 -3
211 -8 230 -10 19 -2 71 -6 115 -9 44 -3 96 -8 115 -10 19 -3 94 -12 165 -21
139 -16 168 -21 255 -35 30 -5 73 -12 95 -16 22 -3 103 -19 180 -35 77 -16
160 -34 185 -39 43 -8 196 -48 345 -88 469 -128 1003 -345 1485 -604 79 -42
410 -240 521 -311 207 -133 578 -415 773 -587 316 -280 604 -573 806 -820 25
-30 47 -57 50 -60 38 -35 326 -424 437 -590 69 -103 283 -455 283 -465 0 -3
11 -22 23 -43 40 -62 179 -338 246 -487 35 -77 69 -153 77 -170 114 -251 326
-894 369 -1114 2 -9 8 -34 14 -56 6 -22 20 -85 31 -140 12 -55 23 -109 26
-120 3 -18 34 -190 49 -275 16 -91 52 -396 60 -505 3 -44 8 -96 10 -115 26
-215 20 -870 -10 -1150 -2 -25 -7 -74 -11 -110 -3 -36 -7 -76 -9 -90 -2 -14
-6 -50 -10 -80 -7 -60 -13 -101 -20 -140 -2 -14 -7 -45 -10 -70 -9 -67 -84
-456 -102 -525 -8 -33 -17 -68 -19 -78 -2 -10 -6 -27 -9 -37 -3 -10 -8 -27
-10 -38 -8 -46 -104 -382 -123 -432 -3 -8 -6 -17 -7 -20 -1 -3 -4 -12 -8 -20
-3 -8 -18 -51 -32 -95 -146 -441 -413 -1003 -678 -1430 -111 -178 -331 -502
-357 -525 -3 -3 -18 -23 -34 -45 -93 -126 -340 -422 -456 -546 -124 -132 -414
-419 -423 -419 -3 0 23 42 56 93 68 103 69 103 130 214 37 68 72 141 135 283
55 125 134 397 158 548 6 35 -9 42 -48 21 -18 -10 -17 -6 7 33 48 78 102 201
125 288 28 104 36 302 15 395 -13 62 -12 77 8 73 7 -1 32 5 57 12 52 17 145
103 156 144 5 22 10 25 28 20 49 -17 111 3 153 48 41 43 55 96 59 216 2 62 5
122 8 135 20 111 78 226 150 300 28 29 106 90 173 135 142 96 210 166 237 241
35 100 20 213 -36 262 -10 9 -18 19 -18 21 0 3 26 32 59 64 239 239 273 493
90 674 -63 62 -191 128 -269 137 -27 3 -50 8 -50 11 0 6 84 116 105 138 5 6
19 23 30 38 11 15 27 36 37 47 9 11 30 37 46 57 16 20 71 88 122 151 50 62 92
121 92 130 0 9 -19 50 -43 92 -24 42 -84 148 -134 236 l-90 160 -190 73 c-104
40 -206 79 -225 86 -27 10 -158 13 -587 14 l-553 0 -209 -80 c-116 -44 -215
-80 -220 -80 -15 0 -42 -44 -180 -288 l-119 -213 34 -44 c19 -25 34 -50 34
-56 0 -6 -15 -32 -34 -58 -19 -25 -55 -80 -81 -121 -26 -41 -44 -64 -40 -50 9
33 -95 -115 -135 -191 -53 -103 -96 -240 -115 -369 -9 -54 -9 -249 -1 -257 3
-3 0 -11 -8 -17 -15 -13 -53 -101 -60 -142 -3 -16 -9 -42 -14 -59 -10 -36 -8
-186 3 -234 l7 -35 -27 30 c-15 16 -40 44 -57 63 -34 38 -43 36 -27 -5 6 -16
12 -36 14 -44 2 -8 15 -56 30 -106 27 -97 71 -287 81 -349 3 -21 8 -47 10 -59
2 -11 7 -43 10 -71 4 -27 8 -52 10 -56 1 -3 6 -39 9 -80 4 -40 8 -80 11 -88 2
-7 7 -63 10 -125 3 -61 7 -116 9 -122 2 -6 -22 -25 -53 -44 -147 -86 -275
-202 -350 -318 -20 -32 -38 -59 -40 -62 -2 -3 -11 5 -20 18 -17 22 -18 22 -36
-40 -10 -35 -32 -97 -49 -138 l-31 -75 -12 40 c-7 22 -13 36 -14 30 -1 -5 -19
26 -39 70 l-38 80 -40 -85 -40 -85 -20 40 c-116 225 -129 610 -25 734 37 45
71 45 142 0 30 -20 60 -38 67 -42 18 -11 -7 64 -30 90 -11 13 -36 26 -56 29
-20 4 -69 20 -110 36 -40 16 -81 31 -90 33 -9 2 -41 11 -71 19 -30 9 -80 18
-110 21 -30 3 -65 8 -76 10 -12 3 -68 59 -124 125 -93 111 -99 120 -75 120 22
0 26 4 23 23 -3 18 -10 22 -46 24 -86 4 -179 48 -244 116 -42 45 -44 59 -7 64
13 2 37 7 53 11 l30 8 -80 60 c-229 174 -495 327 -748 430 l-81 33 80 -1 c76
-1 85 1 185 50 133 64 189 79 230 62 16 -7 32 -21 35 -31 4 -10 9 -19 13 -20
4 0 15 -2 26 -4 10 -2 29 7 43 21 25 26 75 127 95 197 l12 42 6 -35 c6 -35 6
-35 25 28 l18 64 71 -75 c76 -81 90 -90 121 -74 10 5 35 11 54 12 51 3 92 53
121 147 l24 76 81 20 c288 71 526 260 665 529 l41 78 -6 -70 c-3 -38 -8 -81
-11 -95 -3 -14 -7 -36 -9 -50 -7 -48 -66 -211 -95 -264 -38 -69 -38 -74 3 -41
171 143 293 298 381 486 42 90 91 227 100 279 2 14 7 41 11 60 3 19 8 44 10
55 2 11 4 36 5 55 1 60 15 16 61 -202 24 -114 44 -206 46 -204 4 4 23 103 29
156 3 25 8 56 10 70 6 43 6 272 -1 335 -42 411 -198 804 -482 1212 -64 92
-233 308 -309 392 -138 155 -602 630 -615 631 -13 0 -81 -75 -114 -126 -20
-30 -45 -84 -57 -120 l-21 -64 -21 33 c-12 18 -26 41 -33 52 -6 11 -51 85
-100 164 -48 79 -99 163 -112 185 -13 23 -31 52 -41 66 -10 14 -27 41 -38 60
-11 19 -79 132 -151 250 l-132 214 25 51 c44 86 26 218 -39 287 -14 15 -25 30
-25 33 0 3 18 5 39 5 38 0 39 1 46 40 18 106 -70 231 -180 254 -30 6 -30 7
-27 69 11 213 -152 438 -362 502 l-40 12 52 29 c29 16 52 32 52 36 0 26 -184
223 -280 299 -225 178 -518 299 -790 325 -54 5 -83 13 -105 29 -16 13 -68 42
-115 65 -47 22 -92 45 -100 49 -9 5 -30 12 -48 16 -28 6 -46 25 -24 25 4 0 23
15 42 33 19 18 61 54 93 81 l58 49 -53 26 c-166 80 -259 116 -483 184 -62 19
-272 63 -340 71 -27 4 -68 9 -90 12 -47 7 -94 11 -192 14 -40 2 -73 6 -73 10
0 6 57 25 107 36 6 1 29 8 50 15 l38 12 -65 19 c-187 56 -350 77 -570 73 -102
-2 -201 -6 -220 -9 -118 -21 -247 -52 -332 -80 -54 -17 -98 -30 -98 -28 0 1
21 23 48 48 86 83 244 143 359 136 21 -1 33 4 37 15 7 18 -9 32 -39 34 -11 0
-29 2 -40 4 -54 11 -119 16 -205 16 -110 -1 -166 -6 -270 -26 -19 -3 -42 -7
-50 -9 -125 -23 -347 -116 -472 -199 -79 -52 -79 -53 26 78 43 55 84 106 89
113 25 32 -293 -112 -448 -203 -200 -118 -335 -224 -529 -414 l-119 -116 38
70 c21 39 43 76 49 84 21 27 -191 -106 -264 -166 -51 -41 -116 -101 -162 -148
l-49 -50 57 110 c31 61 63 121 71 133 29 47 5 29 -96 -71 -118 -116 -218 -231
-314 -362 -36 -49 -74 -101 -85 -115 -67 -91 -272 -471 -272 -505 0 -8 -4 -15
-9 -15 -5 0 -13 -15 -16 -32 -4 -18 -11 -37 -15 -43 -24 -31 -134 -389 -154
-497 -2 -15 -7 -31 -9 -35 -3 -5 -8 -28 -11 -53 -4 -25 -8 -54 -10 -65 -3 -11
-5 -30 -5 -43 -1 -36 -19 -22 -53 38 -76 136 -110 260 -114 421 -3 128 12 218
64 372 17 48 28 87 27 87 -7 0 -103 -166 -138 -235 -78 -158 -118 -336 -118
-529 0 -60 2 -121 5 -135 3 -14 8 -47 11 -72 21 -175 115 -397 236 -554 33
-43 45 -67 37 -70 -7 -2 -47 -15 -89 -29 -255 -83 -488 -252 -660 -478 -33
-42 -59 -79 -59 -81 0 -3 -18 -35 -40 -71 -22 -36 -40 -72 -40 -79 0 -7 -4
-17 -9 -22 -7 -8 -61 -144 -86 -220 -4 -11 25 28 64 86 39 59 99 135 134 171
65 67 166 148 185 148 5 0 12 4 14 9 3 8 149 81 163 81 4 0 -18 -25 -48 -55
-115 -116 -215 -265 -261 -395 -25 -68 -25 -70 -6 -80 17 -9 23 -5 44 29 14
22 46 56 71 77 43 36 128 78 146 72 4 -2 1 -19 -8 -38 -10 -19 -66 -136 -125
-259 -59 -123 -108 -225 -108 -227 0 -3 18 -3 41 -2 34 3 44 -1 60 -22 42 -58
28 -128 -33 -172 -34 -24 -128 -70 -128 -63 0 2 -36 -11 -81 -30 -325 -137
-548 -456 -566 -811 -4 -80 -2 -113 6 -118 17 -11 38 11 39 39 0 43 23 111 48
141 l25 29 -6 -38 c-3 -21 -9 -46 -14 -55 -9 -18 -57 -204 -66 -257 -59 -345
-48 -648 34 -967 55 -214 154 -440 266 -613 l46 -70 -5 73 -5 74 45 -42 c95
-87 244 -122 369 -86 31 10 59 16 61 14 1 -2 6 -46 10 -98 3 -52 7 -104 9
-115 1 -11 3 -28 4 -37 0 -10 5 -18 10 -18 5 0 51 -20 103 -44 76 -35 151 -65
178 -71 3 -1 23 -6 45 -13 96 -26 303 -37 392 -20 26 5 63 11 82 14 105 17
274 88 384 161 186 124 336 333 391 545 13 50 14 51 20 23 3 -16 8 -48 11 -70
4 -22 10 -65 15 -95 5 -30 12 -73 15 -95 3 -22 8 -53 10 -70 3 -16 7 -43 10
-60 2 -16 9 -64 15 -106 6 -41 13 -86 15 -99 3 -13 6 -39 7 -57 1 -18 5 -33 8
-33 4 0 31 50 60 112 48 104 53 110 66 92 8 -10 21 -27 28 -36 8 -9 19 -26 26
-37 6 -12 34 -33 63 -47 48 -24 171 -104 225 -145 21 -16 21 -19 7 -31 -9 -7
-25 -21 -36 -30 -10 -10 -22 -18 -26 -19 -5 -1 -6 -6 -5 -12 2 -7 0 -9 -3 -5
-12 12 -47 -12 -41 -28 3 -7 2 -13 -2 -13 -17 3 -35 -1 -30 -7 3 -3 -10 -21
-28 -40 -19 -19 -32 -39 -29 -44 4 -6 1 -9 -7 -8 -7 2 -12 -3 -10 -9 1 -7 -3
-13 -9 -13 -5 0 -7 -4 -4 -10 3 -5 2 -10 -2 -10 -12 0 -117 -201 -147 -282
-55 -147 -83 -381 -62 -525 9 -59 17 -65 35 -27 18 41 23 22 7 -24 l-15 -42
32 14 c60 24 110 3 154 -67 39 -62 38 -146 -1 -205 -42 -62 -111 -113 -249
-183 -245 -124 -329 -209 -344 -350 -6 -54 0 -60 28 -26 17 20 17 18 -3 -33
-24 -64 -48 -148 -48 -171 0 -15 6 -15 73 1 39 10 73 16 75 15 1 -1 -37 -42
-86 -91 -100 -101 -165 -178 -218 -262 -153 -238 -167 -487 -44 -732 30 -61
31 -64 9 -45 -13 11 -29 24 -34 30 -6 5 -46 41 -90 79 -213 186 -621 615 -805
850 -8 10 -27 33 -41 50 -101 120 -373 508 -480 684 -46 77 -48 80 -133 227
-215 368 -438 867 -578 1290 -37 112 -118 388 -134 455 -2 8 -12 51 -24 95
-22 85 -88 389 -95 440 -2 17 -7 44 -10 60 -6 37 -22 134 -35 218 -5 34 -12
89 -16 122 -3 32 -7 66 -9 75 -1 8 -6 56 -10 105 -5 50 -10 101 -11 115 -26
251 -26 965 1 1235 7 71 16 159 20 185 1 14 6 54 10 90 4 36 9 74 11 85 3 11
7 40 10 65 2 25 9 68 14 95 5 28 12 66 14 85 3 19 8 47 11 63 3 15 7 37 9 50
2 12 12 58 21 102 9 44 19 91 21 105 18 95 111 448 159 600 249 791 619 1514
1114 2180 63 85 117 157 121 160 3 3 48 57 100 120 149 181 323 373 455 503
237 231 447 418 665 591 278 219 663 471 1030 673 69 38 360 184 420 211 153
67 231 101 365 154 83 33 157 61 165 63 8 3 85 28 170 58 167 58 382 121 550
163 146 36 132 33 284 65 137 28 129 27 167 33 19 3 88 14 154 25 66 11 143
23 170 26 28 3 61 8 75 10 14 3 52 7 85 10 33 4 70 8 82 10 13 2 67 7 120 10
54 4 107 9 118 11 11 2 119 7 240 10 121 4 221 7 222 8 2 1 102 -1 333 -9z
m2546 -7975 c-3 -120 -24 -188 -86 -280 -37 -55 -143 -150 -167 -150 -9 0 -12
9 -9 28 3 15 7 50 11 77 3 28 7 57 8 66 2 9 28 44 59 77 82 89 149 219 168
327 1 6 6 -1 10 -15 4 -14 7 -72 6 -130z m958 -2409 c-14 -23 -31 -41 -36 -41
-5 0 1 14 14 31 13 17 27 37 33 45 5 7 11 11 13 9 2 -2 -9 -22 -24 -44z"/>
<path d="M13787 8313 c-2 -5 -12 -33 -22 -63 -53 -166 -190 -294 -326 -304
-40 -3 -60 -33 -27 -40 98 -20 129 -30 170 -56 58 -36 122 -115 160 -197 15
-35 28 -67 28 -72 0 -5 4 -21 10 -36 8 -21 13 -24 29 -16 10 6 21 26 24 46 10
59 69 166 122 219 60 60 125 95 195 103 28 3 53 10 56 15 10 16 -14 32 -52 35
-62 5 -150 51 -203 108 -52 55 -103 149 -121 223 -10 38 -31 55 -43 35z"/>
</g>
</svg>
