<svg width="23" height="16" viewBox="0 0 23 16" fill="none" xmlns="http://www.w3.org/2000/svg">
<g id="&#62;" filter="url(#filter0_dd_170_46)">
<path d="M4.3139 8.64125C5.16592 7.86397 6.00299 7.06427 6.82511 6.24215C7.64723 5.42003 8.5441 4.6278 9.5157 3.86547C9.76981 3.67115 9.99402 3.49178 10.1883 3.32735C10.3827 3.16293 10.5695 3.02093 10.7489 2.90134C10.9133 2.78176 11.0777 2.69208 11.2422 2.63229C11.4066 2.57249 11.5859 2.5426 11.7803 2.5426C12.0493 2.5426 12.3782 2.65471 12.7668 2.87892C13.1405 3.10314 13.5441 3.37967 13.9776 3.70852C14.4111 4.03737 14.8445 4.39611 15.278 4.78475C15.7115 5.15844 16.1076 5.50224 16.4664 5.81614C16.6906 6.01046 16.9522 6.24215 17.2511 6.51121C17.5351 6.76532 17.8042 7.03438 18.0583 7.31838C18.3124 7.60239 18.5291 7.89387 18.7085 8.19282C18.9028 8.47683 19 8.73841 19 8.97758C19 9.26158 18.9028 9.50075 18.7085 9.69507C18.5291 9.87444 18.3124 9.96412 18.0583 9.96412C17.7294 9.96412 17.4081 9.80717 17.0942 9.49327C16.7354 9.01495 16.3468 8.55904 15.9283 8.12556C15.4948 7.67713 15.0463 7.25859 14.583 6.86995C14.1196 6.46637 13.6562 6.0852 13.1928 5.72646C12.7294 5.35276 12.2735 5.00897 11.8251 4.69507C10.7937 5.4275 9.78475 6.27952 8.79821 7.25112C7.79671 8.22272 6.79522 9.17937 5.79372 10.1211C5.67414 10.2407 5.53961 10.3229 5.39013 10.3677C5.24066 10.4126 5.10613 10.4424 4.98655 10.4574C4.71749 10.4574 4.4858 10.3677 4.29148 10.1883C4.09716 9.99402 4 9.75486 4 9.47085C4 9.18684 4.10463 8.91031 4.3139 8.64125Z" fill="white"/>
</g>
<defs>
<filter id="filter0_dd_170_46" x="0.4" y="0.142602" width="22.2" height="15.1148" filterUnits="userSpaceOnUse" color-interpolation-filters="sRGB">
<feFlood flood-opacity="0" result="BackgroundImageFix"/>
<feColorMatrix in="SourceAlpha" type="matrix" values="0 0 0 0 0 0 0 0 0 0 0 0 0 0 0 0 0 0 127 0" result="hardAlpha"/>
<feOffset dy="1.2"/>
<feGaussianBlur stdDeviation="1.8"/>
<feComposite in2="hardAlpha" operator="out"/>
<feColorMatrix type="matrix" values="0 0 0 0 0 0 0 0 0 0 0 0 0 0 0 0 0 0 0.2 0"/>
<feBlend mode="normal" in2="BackgroundImageFix" result="effect1_dropShadow_170_46"/>
<feColorMatrix in="SourceAlpha" type="matrix" values="0 0 0 0 0 0 0 0 0 0 0 0 0 0 0 0 0 0 127 0" result="hardAlpha"/>
<feOffset dy="1.2"/>
<feGaussianBlur stdDeviation="1.2"/>
<feComposite in2="hardAlpha" operator="out"/>
<feColorMatrix type="matrix" values="0 0 0 0 0 0 0 0 0 0 0 0 0 0 0 0 0 0 0.12 0"/>
<feBlend mode="normal" in2="effect1_dropShadow_170_46" result="effect2_dropShadow_170_46"/>
<feBlend mode="normal" in="SourceGraphic" in2="effect2_dropShadow_170_46" result="shape"/>
</filter>
</defs>
</svg>
