<svg width="20" height="20" viewBox="0 0 20 20" fill="none" xmlns="http://www.w3.org/2000/svg">
<g id="tabler:logout-2">
<g id="Group">
<g id="Vector" style="mix-blend-mode:plus-lighter">
<path d="M11.6665 6.66665V4.99998C11.6665 4.55795 11.4909 4.13403 11.1783 3.82147C10.8658 3.50891 10.4419 3.33331 9.99984 3.33331H4.1665C3.72448 3.33331 3.30055 3.50891 2.98799 3.82147C2.67543 4.13403 2.49984 4.55795 2.49984 4.99998V15C2.49984 15.442 2.67543 15.8659 2.98799 16.1785C3.30055 16.4911 3.72448 16.6666 4.1665 16.6666H9.99984C10.4419 16.6666 10.8658 16.4911 11.1783 16.1785C11.4909 15.8659 11.6665 15.442 11.6665 15V13.3333" stroke="white" stroke-width="1.5"/>
</g>
<path id="Vector_2" d="M7.5 10H17.5M17.5 10L15 7.5M17.5 10L15 12.5" stroke="white" stroke-width="1.5" stroke-linecap="round" stroke-linejoin="round"/>
</g>
</g>
</svg>
